<svg xmlns="http://www.w3.org/2000/svg" width="128.7" height="32" viewBox="0 0 128.7 32"><g transform="translate(-160 -56.146)"><path d="M155.6,5.5a10.183,10.183,0,0,0-8.4,4.3,10.462,10.462,0,0,0-8.4-4.3,10.334,10.334,0,0,0-6.4,2.2V0H128V7.4a10.206,10.206,0,0,0-6-1.9,10.373,10.373,0,0,0-8.3,4.1,10.4,10.4,0,1,0,0,12.6,10.373,10.373,0,0,0,8.3,4.1h.2a9.831,9.831,0,0,0,5.5-1.7c.1-.1.2-.1.2-.2v1.5h4.4V24.1a10.334,10.334,0,0,0,6.4,2.2,8.628,8.628,0,0,0,2.8-.4L138.7,32h4.8l4.1-9.5A10.375,10.375,0,0,0,166,15.9,10.522,10.522,0,0,0,155.6,5.5ZM105.3,9.9a5.859,5.859,0,0,1,5.4,3.8H100A5.643,5.643,0,0,1,105.3,9.9Zm5.5,7.9h0l-.3.7a5.663,5.663,0,0,1-5.2,3.4,5.92,5.92,0,0,1-5.5-4.1Zm11.1,4.1a6.226,6.226,0,0,1-5.2-2.9,6.388,6.388,0,0,1-.6-2.8,5.849,5.849,0,0,1,6-6.1,5.788,5.788,0,0,1,5.8,5.8A6.018,6.018,0,0,1,121.9,21.9Zm16.8,0a6,6,0,1,1,6-6A6.018,6.018,0,0,1,138.7,21.9Zm16.9-12a5.859,5.859,0,0,1,5.4,3.8H150.2A5.673,5.673,0,0,1,155.6,9.9Zm5.5,7.9h0l-.3.7a5.639,5.639,0,0,1-10.6-.7Z" transform="translate(122.7 56.146)" fill="#4e4e4e"/><path d="M87.9,15.3V0H83.5V7.4a10.127,10.127,0,0,0-5.9-1.9,14.919,14.919,0,0,0-2.1.2,9.925,9.925,0,0,0-5.7,3.2A6.47,6.47,0,0,0,69,8a8.438,8.438,0,0,0-6.4-2.5,7.412,7.412,0,0,0-4.4,1.3V6H53.8V7.5c-.1-.1-.3-.2-.4-.3a11.4,11.4,0,0,0-1.9-1,9.857,9.857,0,0,0-3.8-.7A10.457,10.457,0,0,0,37.3,15.9h0A10.437,10.437,0,0,0,47.9,26.3a9.715,9.715,0,0,0,5.9-1.9v1.4h4.4V15c0-1.8.4-3.2,1.3-4a4.6,4.6,0,0,1,6.2,0c.9.8,1.3,2.3,1.3,4.1V25.9h4.4V24.5a11.223,11.223,0,0,0,4.5,1.8c.2,0,.3.1.5.1h2a10.374,10.374,0,0,0,5-1.8v1.3L80.6,32h4.7L97,5.5H92.2ZM47.7,21.9a6,6,0,0,1-5.8-4.6,5.853,5.853,0,0,1-.2-1.3,5.894,5.894,0,0,1,6-6,5.95,5.95,0,1,1,0,11.9Zm29.9,0a6,6,0,1,1,6-6A6.083,6.083,0,0,1,77.6,21.9Z" transform="translate(122.7 56.146)" fill="#4e4e4e"/></g></svg>